<svg width="105" height="105" viewBox="0 0 105 105" fill="none" xmlns="http://www.w3.org/2000/svg">
<path d="M24.4441 70.7898C25.4882 75.3188 24.7906 81.4623 23.7046 86.7359C23.2722 88.8355 22.7921 90.7344 22.3745 92.2486C20.8536 90.8885 18.8774 89.0168 16.8212 86.7874C12.3537 81.9436 7.79936 75.7186 6.38014 69.5623C4.9902 63.533 6.64656 59.312 8.5692 56.5748C9.53113 55.2054 10.5778 54.1866 11.3904 53.5079C11.5572 53.6454 11.7362 53.7945 11.9258 53.9547C13.1407 54.9809 14.7829 56.4502 16.4909 58.2204C19.9888 61.8455 23.4314 66.3969 24.4441 70.7898Z" stroke="#12A505" stroke-width="5"/>
<path d="M51.1064 59.6069C52.6158 66.1543 51.5995 74.9148 50.0785 82.3008C49.3288 85.9413 48.4778 89.1514 47.8142 91.4506C47.8011 91.496 47.7881 91.541 47.7751 91.5856C47.5367 91.3785 47.286 91.1588 47.024 90.9269C44.8312 88.9862 41.863 86.2046 38.7646 82.8452C32.4971 76.0497 25.9869 67.1973 23.9446 58.3379C21.9315 49.6056 24.3331 43.426 27.1568 39.4061C28.5881 37.3685 30.1463 35.8643 31.3423 34.8739C31.5445 34.7064 31.7357 34.5541 31.9134 34.417C32.3073 34.7347 32.7731 35.1173 33.2961 35.5591C35.0118 37.0082 37.3313 39.0836 39.7458 41.5858C44.6566 46.6751 49.6284 53.1954 51.1064 59.6069Z" stroke="#12A505" stroke-width="5"/>
<path d="M91.1269 45.6817C93.3791 55.4512 91.854 68.3894 89.6386 79.1475C88.5416 84.474 87.297 89.1688 86.3266 92.5312C86.1288 93.2166 85.9425 93.8461 85.7714 94.4138C85.0671 93.8165 84.2487 93.1105 83.338 92.3045C80.1298 89.4652 75.7872 85.3956 71.252 80.4784C62.1112 70.5676 52.479 57.521 49.4419 44.3466C46.4341 31.2994 50.0254 21.9933 54.2874 15.9258C56.4379 12.8643 58.7775 10.606 60.575 9.1173C61.172 8.62283 61.7067 8.21538 62.1513 7.89362C62.8443 8.44268 63.7711 9.19296 64.8689 10.1202C67.384 12.2445 70.7848 15.2872 74.327 18.9582C81.4931 26.3849 88.9061 36.0481 91.1269 45.6817Z" stroke="#12A505" stroke-width="5"/>
</svg>
