<svg width="106" height="97" viewBox="0 0 106 97" fill="none" xmlns="http://www.w3.org/2000/svg">
<path d="M47.7072 28.5868C45.2849 29.3211 41.7982 29.1848 38.6469 28.7557C38.0843 28.6791 37.5451 28.5951 37.0401 28.509C37.5938 27.8472 38.2315 27.1208 38.9382 26.3743C41.6034 23.5591 44.9627 20.7694 48.2962 19.7589C51.505 18.7862 53.7803 19.5287 55.2713 20.4318C55.7 20.6915 56.071 20.9699 56.3827 21.236C55.863 21.9238 55.1844 22.771 54.3875 23.6517C52.4025 25.8453 49.996 27.893 47.7072 28.5868Z" stroke="#12A505" stroke-width="5"/>
<path d="M69.7109 28.5868C67.2886 29.3211 63.8019 29.1848 60.6506 28.7557C60.0879 28.6791 59.5488 28.5951 59.0438 28.509C59.5975 27.8472 60.2352 27.1208 60.9419 26.3743C63.6071 23.5591 66.9664 20.7694 70.2999 19.7589C73.5086 18.7862 75.784 19.5287 77.275 20.4318C77.7037 20.6915 78.0747 20.9699 78.3864 21.236C77.8667 21.9238 77.188 22.771 76.3912 23.6517C74.4062 25.8453 71.9997 27.893 69.7109 28.5868Z" stroke="#12A505" stroke-width="5"/>
<path d="M91.7146 28.5868C89.2923 29.3211 85.8056 29.1848 82.6543 28.7557C82.0916 28.6791 81.5525 28.5951 81.0475 28.509C81.6012 27.8472 82.2389 27.1208 82.9456 26.3743C85.6108 23.5591 88.9701 20.7694 92.3036 19.7589C95.5123 18.7862 97.7877 19.5287 99.2787 20.4318C99.7074 20.6915 100.078 20.9699 100.39 21.236C99.8704 21.9238 99.1917 22.771 98.3948 23.6517C96.4099 25.8453 94.0034 27.893 91.7146 28.5868Z" stroke="#12A505" stroke-width="5"/>
<path d="M15.5434 77.6075L3.4033 56.0864C3.1694 55.6718 3.25681 55.1556 3.6231 54.8516C7.30009 51.7992 26.1855 36.3412 31.5453 36.3412H67.2229C67.4243 36.3412 67.6121 36.4018 67.7731 36.5228C68.6465 37.1799 71.5141 39.5101 71.3898 41.6935C71.2748 43.7156 68.5874 45.7216 67.7628 46.2913C67.6082 46.3981 67.4245 46.4511 67.2366 46.4511H40.9918C40.8413 46.4511 40.6946 46.4843 40.5618 46.5552C39.8021 46.961 37.1392 48.5043 36.8976 50.3166C36.6163 52.4263 39.6524 54.6302 40.5297 55.2194C40.6823 55.3219 40.8499 55.3715 41.0337 55.3715H71.0925C76.1474 55.3715 91.3121 40.2067 95.7723 33.3677C96.9141 31.617 99.7311 31.5098 101.125 33.3677C102.016 34.5566 101.819 35.8814 101.742 36.2447C101.728 36.3098 101.708 36.3631 101.677 36.4219C100.93 37.8285 90.4078 57.2547 74.6607 64.8866C59.4279 72.2692 47.0612 62.5795 31.5453 69.3468C26.3279 71.6224 19.4225 76.2561 16.9832 77.9374C16.4995 78.2708 15.832 78.1192 15.5434 77.6075Z" stroke="#12A505" stroke-width="5"/>
</svg>
