<svg width="114" height="115" viewBox="0 0 114 115" fill="none" xmlns="http://www.w3.org/2000/svg">
<path d="M51.9073 40.5636C52.2972 42.255 51.7867 44.8962 50.915 47.5002C50.7051 48.1273 50.486 48.7191 50.276 49.2525C49.5293 48.7309 48.6712 48.0938 47.7954 47.367C45.152 45.1731 42.8709 42.5851 42.3205 40.1975C41.8197 38.0249 42.6647 36.3756 43.8636 35.0952C44.3557 34.5696 44.8822 34.1399 45.3384 33.8142C46.032 34.2507 46.9365 34.8592 47.8629 35.5896C48.8376 36.3581 49.7876 37.2233 50.5375 38.1257C51.3013 39.045 51.7478 39.8719 51.9073 40.5636ZM46.4167 33.1437C46.418 33.143 46.4179 33.1431 46.4161 33.144L46.4167 33.1437Z" stroke="#12A505" stroke-width="5"/>
<path d="M47.6059 67.3689C47.7809 68.1281 47.7588 69.19 47.5081 70.5037C47.2629 71.7883 46.8323 73.1462 46.3453 74.4158C46.0349 75.225 45.7096 75.9781 45.4104 76.6282C44.4983 76.0678 43.3952 75.3429 42.2681 74.4926C40.8817 73.4466 39.5112 72.2498 38.4196 70.9772C37.3136 69.6879 36.6106 68.4558 36.3537 67.3414C35.8653 65.2227 36.7891 63.513 38.2308 62.1008C38.9091 61.4364 39.6388 60.9098 40.2272 60.5382C40.2665 60.56 40.3067 60.5824 40.3476 60.6053C41.1271 61.0421 42.1692 61.6682 43.2345 62.43C44.3084 63.198 45.3489 64.0635 46.1629 64.9683C46.9949 65.8932 47.4536 66.7084 47.6059 67.3689ZM41.2418 59.965L41.2395 59.9661C41.2413 59.9652 41.2422 59.9648 41.2422 59.9648L41.2418 59.965Z" stroke="#12A505" stroke-width="5"/>
<path d="M65.7599 75.3803C65.3652 76.052 64.6193 76.8081 63.5343 77.59C62.4732 78.3546 61.2271 79.0449 60.0008 79.6323C59.2192 80.0068 58.4652 80.3301 57.8011 80.5967C57.5238 79.5628 57.2207 78.278 56.9865 76.8857C56.6984 75.1731 56.5256 73.3618 56.6073 71.6871C56.6902 69.9905 57.0264 68.6124 57.6058 67.6263C58.7073 65.7517 60.5535 65.1448 62.5712 65.11C63.5206 65.0936 64.4125 65.2127 65.0953 65.3471C65.1089 65.39 65.1227 65.4339 65.1367 65.4787C65.4026 66.3317 65.7292 67.5028 65.9794 68.7883C66.2316 70.0842 66.3925 71.4281 66.3618 72.6447C66.3304 73.8884 66.1033 74.7958 65.7599 75.3803ZM66.2263 65.6282L66.2238 65.6274C66.2257 65.6281 66.2267 65.6284 66.2267 65.6284L66.2263 65.6282Z" stroke="#12A505" stroke-width="5"/>
<path d="M55.1784 93.8953C55.1306 94.673 54.8079 95.6849 54.1944 96.8733C53.5945 98.0354 52.796 99.2151 51.9685 100.294C51.4412 100.982 50.9154 101.612 50.4439 102.15C49.7285 101.354 48.8766 100.345 48.0374 99.2098C47.0051 97.8132 46.0309 96.2765 45.3456 94.7463C44.6513 93.196 44.3271 91.815 44.3973 90.6735C44.5306 88.5034 45.902 87.1264 47.6853 86.1818C48.5243 85.7373 49.3735 85.4397 50.0432 85.2504C50.0748 85.2825 50.1069 85.3153 50.1397 85.349C50.763 85.9891 51.5844 86.8854 52.3895 87.9183C53.2011 88.9596 53.953 90.085 54.4765 91.1837C55.0117 92.3068 55.22 93.2187 55.1784 93.8953ZM51.1789 84.9889L51.1763 84.9893C51.1783 84.989 51.1794 84.9889 51.1794 84.9889L51.1789 84.9889Z" stroke="#12A505" stroke-width="5"/>
<path d="M62.3756 28.2195C70.6299 28.2195 88.0957 28.2195 91.9246 28.2195C93.0126 28.2195 93.824 28.0627 94.4217 27.8159M94.4217 27.8159C95.9272 27.1941 95.8513 25.2014 95.4999 23.5C94.8914 20.5529 91.8125 19.6878 88.8032 19.6878C75.5 19.6878 55.0251 21.5 56.7571 19.6878C59.7329 16.5741 62.9583 16.8183 64.4999 13.8612C65.7785 11.4088 66.1082 7.65649 66.1664 5.0308C66.1955 3.71745 64.7283 3.00346 63.6451 3.74669C61.0631 5.51828 56.9396 8.20571 53.6357 9.69938C48.8101 11.881 40.7848 13.7532 40.3374 13.8567C40.3229 13.8601 40.3145 13.8619 40.3 13.8649C39.8484 13.9579 30.9618 15.8271 27 19.6878C18.7355 27.7413 20.0766 40.0048 27 49.2368C34.755 59.5775 50.5665 55.5 59.4999 55.5C70.075 55.5 85.3903 55.5 87.3017 55.5C87.4345 55.5 87.5639 55.4846 87.6916 55.4479C88.5028 55.2141 91.6257 54.1775 91.9246 52C92.3268 49.0694 88.8032 46.5 88.8032 46.5M94.4217 27.8159C94.4217 27.8159 96.4443 29.798 96.4999 32.5C96.5569 35.2672 91.9246 37.5 91.9246 37.5M91.9246 37.5H88.8032H62.3756M91.9246 37.5C91.9246 37.5 94.8814 39.5119 94.4217 42.5C94.0372 44.999 88.8032 46.5 88.8032 46.5M88.8032 46.5H62.3756" stroke="#12A505" stroke-width="5"/>
<path d="M2 92.1208C2 92.1208 9.73526 82.4283 16.3478 81.7232C27.7948 80.5024 31.8963 95.9251 38.5217 104.499C45.1472 113.073 58.6539 110.481 66.7826 104.499C73.3232 99.6859 76.7319 93.1012 77.1691 92.2198C77.2027 92.1521 77.2379 92.0894 77.2798 92.0265C77.8923 91.1087 82.9038 83.7589 87.6522 81.7232C97.156 77.6487 112 92.1208 112 92.1208" stroke="#12A505" stroke-width="5"/>
</svg>
