<svg width="122" height="96" viewBox="0 0 122 96" fill="none" xmlns="http://www.w3.org/2000/svg">
<path d="M26.7665 60.5L21.7576 9.5H119.117L113.61 48.0506C112.59 55.194 106.472 60.5 99.256 60.5H26.7665Z" stroke="#12A505" stroke-width="5"/>
<path d="M27 61C27 62.4967 27 64.3591 27 66.0007C27 68.2099 28.7909 70 31 70H111" stroke="#12A505" stroke-width="5"/>
<circle cx="41.5" cy="78.5" r="6" stroke="#12A505" stroke-width="5"/>
<circle cx="97.5" cy="78.5" r="6" stroke="#12A505" stroke-width="5"/>
<path d="M21.5 8V7C21.5 4.79086 19.7091 3 17.5 3H1" stroke="#12A505" stroke-width="5"/>
<path d="M50.4441 33.7898C51.4882 38.3188 50.7906 44.4623 49.7046 49.7358C49.2722 51.8355 48.7921 53.7343 48.3745 55.2486C46.8536 53.8885 44.8774 52.0168 42.8212 49.7874C38.3537 44.9436 33.7994 38.7185 32.3801 32.5623C30.9902 26.533 32.6466 22.312 34.5692 19.5748C35.5311 18.2054 36.5778 17.1866 37.3904 16.5079C37.5572 16.6454 37.7362 16.7945 37.9258 16.9547C39.1407 17.9809 40.7829 19.4502 42.4909 21.2204C45.9888 24.8454 49.4314 29.3968 50.4441 33.7898Z" stroke="#12A505" stroke-width="5"/>
<path d="M75.9391 33.7898C76.9832 38.3188 76.2855 44.4623 75.1995 49.7358C74.7671 51.8355 74.2871 53.7343 73.8694 55.2486C72.3486 53.8885 70.3723 52.0168 68.3162 49.7874C63.8487 44.9436 59.2943 38.7185 57.8751 32.5623C56.4852 26.533 58.1415 22.312 60.0642 19.5748C61.0261 18.2054 62.0727 17.1866 62.8854 16.5079C63.0522 16.6454 63.2311 16.7945 63.4207 16.9547C64.6357 17.9809 66.2778 19.4502 67.9859 21.2204C71.4838 24.8454 74.9264 29.3968 75.9391 33.7898Z" stroke="#12A505" stroke-width="5"/>
<path d="M101.434 33.7898C102.478 38.3188 101.781 44.4623 100.694 49.7358C100.262 51.8355 99.782 53.7343 99.3644 55.2486C97.8435 53.8885 95.8673 52.0168 93.8111 49.7874C89.3436 44.9436 84.7893 38.7185 83.3701 32.5623C81.9801 26.533 83.6365 22.312 85.5591 19.5748C86.5211 18.2054 87.5677 17.1866 88.3804 16.5079C88.5472 16.6454 88.7261 16.7945 88.9157 16.9547C90.1307 17.9809 91.7728 19.4502 93.4809 21.2204C96.9787 24.8454 100.421 29.3968 101.434 33.7898Z" stroke="#12A505" stroke-width="5"/>
</svg>
